# xmcd
#
# Track frame offsets: 
#        150
#        17304
#        30490
#        43915
#        62092
#        75346
#        90418
#        101216
#        111885
#        122192
#        136465
#        145805
#        156771
#
# Disc length: 2228 seconds
#
# Revision: 0
# Processed by: cddbd v1.5.2PL0 Copyright (c) Steve Scherf et al.
# Submitted via: ExactAudioCopy v0.95b4
#
DISCID=a308b20d
DTITLE=Various Artist - Country Gospel Favorites CD2
DYEAR=2005
DGENRE=Gospel
TTITLE0=Mac Wiseman - The Great Speckled Bird
TTITLE1=Wilma Burgess - You Can't Be A Beacon If Your Light Don't Shin
TTITLE1=e
TTITLE2=Tommy Cash - Amazing Grace
TTITLE3=Ferlin Husky - Just A Closer Walk With Thee
TTITLE4=Singing Gospelaires - Amazing Grace
TTITLE5=Singing Gospelaires - One Day At A Time
TTITLE6=Singing Gospelaires - Will The Circle Be Unbroken
TTITLE7=Singing Gospelaires - Turn Your Radio On
TTITLE8=Mac Wiseman - When God Dips His Love In My Heart
TTITLE9=Singing Gospelaires - The King Is Coming
TTITLE10=Touch My Soul - This Old House
TTITLE11=Touch My Soul - Take My Hand, Precious Lord
TTITLE12=Touch My Soul - On The Jericho Road
EXTD=
EXTT0=
EXTT1=
EXTT2=
EXTT3=
EXTT4=
EXTT5=
EXTT6=
EXTT7=
EXTT8=
EXTT9=
EXTT10=
EXTT11=
EXTT12=
PLAYORDER=
